# xmcd
#
# Track frame offsets: 
#        150
#        12147
#        27164
#        40930
#        54493
#        73754
#        91715
#        115852
#        130820
#        145311
#        163953
#        184085
#        207578
#        225137
#
# Disc length: 3240 seconds
#
# Revision: 1
# Processed by: cddbd v1.5.2PL0 Copyright (c) Steve Scherf et al.
# Submitted via: ExactAudioCopy v1.0b3
#
DISCID=b90ca60e
DTITLE=Roomful Of Blues - Raisin' A Ruckus
DYEAR=2007
DGENRE=Blues
TTITLE0=Every Dog Has It's Day
TTITLE1=Lower on Your List of Priorities
TTITLE2=Talkin' to You Eye to Eye
TTITLE3=Big Mamou
TTITLE4=Round It Down
TTITLE5=I Would Be a Sinner
TTITLE6=Black Night
TTITLE7=Boogie Woogie Country Girl
TTITLE8=Solid Jam
TTITLE9=Sweet Petite
TTITLE10=While I Can
TTITLE11=Raisin' A Ruckus
TTITLE12=New Orleans
TTITLE13=Life Has Been Good
EXTD=
EXTT0=
EXTT1=
EXTT2=
EXTT3=
EXTT4=
EXTT5=
EXTT6=
EXTT7=
EXTT8=
EXTT9=
EXTT10=
EXTT11=
EXTT12=
EXTT13=
PLAYORDER=
